<?xml version="1.0" standalone="no"?>
<!DOCTYPE svg PUBLIC "-//W3C//DTD SVG 20010904//EN"
 "http://www.w3.org/TR/2001/REC-SVG-20010904/DTD/svg10.dtd">
<svg version="1.0" xmlns="http://www.w3.org/2000/svg"
 width="100.000000pt" height="100.000000pt" viewBox="0 0 100.000000 100.000000"
 preserveAspectRatio="xMidYMid meet">
<metadata>
Created by potrace 1.16, written by Peter Selinger 2001-2019
</metadata>
<g transform="translate(0.000000,100.000000) scale(0.100000,-0.100000)"
fill="#000000" stroke="none">
<path d="M106 894 l-26 -27 0 -367 0 -367 26 -27 27 -26 367 0 367 0 27 26 26
27 0 367 0 367 -26 27 -27 26 -367 0 -367 0 -27 -26z m751 -37 c17 -16 18 -45
18 -357 0 -312 -1 -341 -18 -357 -16 -17 -45 -18 -357 -18 -312 0 -341 1 -357
18 -16 16 -18 46 -21 341 -2 203 1 333 7 350 6 14 21 31 33 36 13 5 166 8 350
7 299 -2 329 -4 345 -20z"/>
<path d="M200 757 c0 -25 1 -25 103 -29 96 -3 110 -6 179 -41 92 -45 167 -122
212 -217 26 -56 31 -79 34 -167 4 -102 12 -121 42 -103 21 13 8 202 -19 272
-47 120 -159 232 -279 279 -42 16 -85 23 -164 27 l-108 4 0 -25z"/>
<path d="M207 573 c-4 -3 -7 -15 -7 -25 0 -16 9 -18 75 -18 161 0 255 -96 255
-260 0 -68 1 -71 23 -68 20 3 22 9 25 78 4 92 -15 146 -72 208 -59 65 -123 92
-217 92 -42 0 -79 -3 -82 -7z"/>
<path d="M225 355 c-35 -34 -35 -96 0 -130 18 -19 35 -25 65 -25 30 0 47 6 65
25 19 18 25 35 25 65 0 56 -34 90 -90 90 -30 0 -47 -6 -65 -25z"/>
</g>
</svg>
